<svg id="Group_20" data-name="Group 20" xmlns="http://www.w3.org/2000/svg" width="185.952" height="101.978" viewBox="0 0 185.952 101.978">
  <g id="Group_6" data-name="Group 6">
    <circle id="Ellipse_1" data-name="Ellipse 1" cx="7.489" cy="7.489" r="7.489" fill="#fff"/>
    <circle id="Ellipse_2" data-name="Ellipse 2" cx="7.489" cy="7.489" r="7.489" transform="translate(34.325)" fill="#fff"/>
    <circle id="Ellipse_3" data-name="Ellipse 3" cx="7.489" cy="7.489" r="7.489" transform="translate(68.649)" fill="#fff"/>
    <circle id="Ellipse_4" data-name="Ellipse 4" cx="7.489" cy="7.489" r="7.489" transform="translate(102.974)" fill="#fff"/>
    <circle id="Ellipse_5" data-name="Ellipse 5" cx="7.489" cy="7.489" r="7.489" transform="translate(136.974)" fill="#fff"/>
    <circle id="Ellipse_6" data-name="Ellipse 6" cx="7.489" cy="7.489" r="7.489" transform="translate(170.974)" fill="#fff"/>
  </g>
  <g id="Group_5" data-name="Group 5" transform="translate(0 29)">
    <circle id="Ellipse_7" data-name="Ellipse 7" cx="7.489" cy="7.489" r="7.489" fill="#fff"/>
    <circle id="Ellipse_8" data-name="Ellipse 8" cx="7.489" cy="7.489" r="7.489" transform="translate(34.325)" fill="#fff"/>
    <circle id="Ellipse_9" data-name="Ellipse 9" cx="7.489" cy="7.489" r="7.489" transform="translate(68.649)" fill="#fff"/>
    <circle id="Ellipse_10" data-name="Ellipse 10" cx="7.489" cy="7.489" r="7.489" transform="translate(102.974)" fill="#fff"/>
    <circle id="Ellipse_11" data-name="Ellipse 11" cx="7.489" cy="7.489" r="7.489" transform="translate(136.974)" fill="#fff"/>
    <circle id="Ellipse_12" data-name="Ellipse 12" cx="7.489" cy="7.489" r="7.489" transform="translate(170.974)" fill="#fff"/>
  </g>
  <g id="Group_4" data-name="Group 4" transform="translate(0 58)">
    <circle id="Ellipse_13" data-name="Ellipse 13" cx="7.489" cy="7.489" r="7.489" fill="#fff"/>
    <circle id="Ellipse_14" data-name="Ellipse 14" cx="7.489" cy="7.489" r="7.489" transform="translate(34.325)" fill="#fff"/>
    <circle id="Ellipse_15" data-name="Ellipse 15" cx="7.489" cy="7.489" r="7.489" transform="translate(68.649)" fill="#fff"/>
    <circle id="Ellipse_16" data-name="Ellipse 16" cx="7.489" cy="7.489" r="7.489" transform="translate(102.974)" fill="#fff"/>
    <circle id="Ellipse_17" data-name="Ellipse 17" cx="7.489" cy="7.489" r="7.489" transform="translate(136.974)" fill="#fff"/>
    <circle id="Ellipse_18" data-name="Ellipse 18" cx="7.489" cy="7.489" r="7.489" transform="translate(170.974)" fill="#fff"/>
  </g>
  <g id="Group_3" data-name="Group 3" transform="translate(0 87)">
    <circle id="Ellipse_19" data-name="Ellipse 19" cx="7.489" cy="7.489" r="7.489" fill="#fff"/>
    <circle id="Ellipse_20" data-name="Ellipse 20" cx="7.489" cy="7.489" r="7.489" transform="translate(34.325)" fill="#fff"/>
    <circle id="Ellipse_21" data-name="Ellipse 21" cx="7.489" cy="7.489" r="7.489" transform="translate(68.649)" fill="#fff"/>
    <circle id="Ellipse_22" data-name="Ellipse 22" cx="7.489" cy="7.489" r="7.489" transform="translate(102.974)" fill="#fff"/>
    <circle id="Ellipse_23" data-name="Ellipse 23" cx="7.489" cy="7.489" r="7.489" transform="translate(136.974)" fill="#fff"/>
    <circle id="Ellipse_24" data-name="Ellipse 24" cx="7.489" cy="7.489" r="7.489" transform="translate(170.974)" fill="#fff"/>
  </g>
</svg>
