<svg id="Group_21" data-name="Group 21" xmlns="http://www.w3.org/2000/svg" xmlns:xlink="http://www.w3.org/1999/xlink" width="1920" height="954.84" viewBox="0 0 1920 954.84">
  <defs>
    <linearGradient id="linear-gradient" x1="0.076" y1="0.101" x2="0.663" y2="0.944" gradientUnits="objectBoundingBox">
      <stop offset="0" stop-color="#00a1e9"/>
      <stop offset="1" stop-color="#7cccef"/>
    </linearGradient>
  </defs>
  <rect id="Rectangle_2" data-name="Rectangle 2" width="1920" height="954.52" fill="#f2f5ff"/>
  <g id="Group_19" data-name="Group 19" transform="translate(890 185.97)">
    <g id="Group_12" data-name="Group 12">
      <g id="Group_13" data-name="Group 13">
        <circle id="Ellipse_1" data-name="Ellipse 1" cx="7.489" cy="7.489" r="7.489" fill="#10516e"/>
        <circle id="Ellipse_2" data-name="Ellipse 2" cx="7.489" cy="7.489" r="7.489" transform="translate(34.325)" fill="#10516e"/>
        <circle id="Ellipse_3" data-name="Ellipse 3" cx="7.489" cy="7.489" r="7.489" transform="translate(68.649)" fill="#10516e"/>
        <circle id="Ellipse_4" data-name="Ellipse 4" cx="7.489" cy="7.489" r="7.489" transform="translate(102.974)" fill="#10516e"/>
      </g>
    </g>
    <g id="Group_11" data-name="Group 11" transform="translate(0 36)">
      <circle id="Ellipse_7" data-name="Ellipse 7" cx="7.489" cy="7.489" r="7.489" fill="#10516e"/>
      <circle id="Ellipse_8" data-name="Ellipse 8" cx="7.489" cy="7.489" r="7.489" transform="translate(34.325)" fill="#10516e"/>
      <circle id="Ellipse_9" data-name="Ellipse 9" cx="7.489" cy="7.489" r="7.489" transform="translate(68.649)" fill="#10516e"/>
      <circle id="Ellipse_10" data-name="Ellipse 10" cx="7.489" cy="7.489" r="7.489" transform="translate(102.974)" fill="#10516e"/>
    </g>
    <g id="Group_10" data-name="Group 10" transform="translate(0 72)">
      <circle id="Ellipse_13" data-name="Ellipse 13" cx="7.489" cy="7.489" r="7.489" fill="#10516e"/>
      <circle id="Ellipse_14" data-name="Ellipse 14" cx="7.489" cy="7.489" r="7.489" transform="translate(34.325)" fill="#10516e"/>
      <circle id="Ellipse_15" data-name="Ellipse 15" cx="7.489" cy="7.489" r="7.489" transform="translate(68.649)" fill="#10516e"/>
      <circle id="Ellipse_16" data-name="Ellipse 16" cx="7.489" cy="7.489" r="7.489" transform="translate(102.974)" fill="#10516e"/>
    </g>
    <g id="Group_9" data-name="Group 9" transform="translate(0 108)">
      <circle id="Ellipse_19" data-name="Ellipse 19" cx="7.489" cy="7.489" r="7.489" fill="#10516e"/>
      <circle id="Ellipse_20" data-name="Ellipse 20" cx="7.489" cy="7.489" r="7.489" transform="translate(34.325)" fill="#10516e"/>
      <circle id="Ellipse_21" data-name="Ellipse 21" cx="7.489" cy="7.489" r="7.489" transform="translate(68.649)" fill="#10516e"/>
      <circle id="Ellipse_22" data-name="Ellipse 22" cx="7.489" cy="7.489" r="7.489" transform="translate(102.974)" fill="#10516e"/>
    </g>
  </g>
  <path id="Path_1" data-name="Path 1" d="M1326.018,1114.258s-298.569-11.287-499.862-200.783-212.616-479-367.989-609.861S-49.474,159.459-213.025,159.459H-357l-1,954.8Z" transform="translate(358 -159.418)" fill="url(#linear-gradient)"/>
  <g id="Group_14" data-name="Group 14" transform="translate(750.384 591.313) rotate(45)">
    <g id="Ellipse_29" data-name="Ellipse 29" fill="none" stroke="#fff" stroke-width="7">
      <circle cx="43.434" cy="43.434" r="43.434" stroke="none"/>
      <circle cx="43.434" cy="43.434" r="39.934" fill="none"/>
    </g>
    <g id="Ellipse_30" data-name="Ellipse 30" transform="translate(43.353 0.022)" fill="none" stroke="#fff" stroke-width="7">
      <circle cx="43.434" cy="43.434" r="43.434" stroke="none"/>
      <circle cx="43.434" cy="43.434" r="39.934" fill="none"/>
    </g>
  </g>
  <g id="Group_17" data-name="Group 17" transform="matrix(0.208, 0.978, -0.978, 0.208, 357.291, 158.141)">
    <g id="Group_15" data-name="Group 15">
      <line id="Line_1" data-name="Line 1" y2="69" transform="translate(0)" fill="none" stroke="#fffcfc" stroke-width="9" stroke-dasharray="3 3"/>
      <line id="Line_3" data-name="Line 3" x2="60" y2="35" transform="translate(0)" fill="none" stroke="#fffcfc" stroke-width="9" stroke-dasharray="3 3"/>
      <line id="Line_4" data-name="Line 4" y1="34" x2="60" transform="translate(0 35)" fill="none" stroke="#fffcfc" stroke-width="9" stroke-dasharray="3 3"/>
    </g>
    <g id="Group_16" data-name="Group 16" transform="translate(14 24)">
      <line id="Line_1-2" data-name="Line 1" y2="69" transform="translate(0)" fill="none" stroke="#fffcfc" stroke-width="9" stroke-dasharray="3 3"/>
      <line id="Line_3-2" data-name="Line 3" x2="60" y2="35" transform="translate(0)" fill="none" stroke="#fffcfc" stroke-width="9" stroke-dasharray="3 3"/>
      <line id="Line_4-2" data-name="Line 4" y1="34" x2="60" transform="translate(0 35)" fill="none" stroke="#fffcfc" stroke-width="9" stroke-dasharray="3 3"/>
    </g>
  </g>
  <g id="Ellipse_31" data-name="Ellipse 31" transform="translate(1170 684.52)" fill="none" stroke="#f2f5ff" stroke-width="15" stroke-dasharray="11">
    <circle cx="100" cy="100" r="100" stroke="none"/>
    <circle cx="100" cy="100" r="92.5" fill="none"/>
  </g>
  <g id="Group_18" data-name="Group 18" transform="translate(1701 768.52)">
    <g id="Ellipse_26" data-name="Ellipse 26" transform="translate(0 60.234)" fill="none" stroke="#3eb7ec" stroke-width="8">
      <circle cx="15.776" cy="15.776" r="15.776" stroke="none"/>
      <circle cx="15.776" cy="15.776" r="11.776" fill="none"/>
    </g>
    <g id="Ellipse_27" data-name="Ellipse 27" transform="translate(31.551 30.117)" fill="none" stroke="#3eb7ec" stroke-width="8">
      <circle cx="15.776" cy="15.776" r="15.776" stroke="none"/>
      <circle cx="15.776" cy="15.776" r="11.776" fill="none"/>
    </g>
    <g id="Ellipse_28" data-name="Ellipse 28" transform="translate(63.102)" fill="none" stroke="#3eb7ec" stroke-width="8">
      <circle cx="15.776" cy="15.776" r="15.776" stroke="none"/>
      <circle cx="15.776" cy="15.776" r="11.776" fill="none"/>
    </g>
  </g>
</svg>
