<svg width="22" height="22" viewBox="0 0 22 22" fill="none" xmlns="http://www.w3.org/2000/svg">
<path d="M12.6806 6.11106C14.0306 6.11106 15.125 5.01664 15.125 3.66661C15.125 2.31658 14.0306 1.22217 12.6806 1.22217C11.3305 1.22217 10.2361 2.31658 10.2361 3.66661C10.2361 5.01664 11.3305 6.11106 12.6806 6.11106Z" fill="#404040"/>
<path d="M15.18 16.0294C15.1125 15.984 15.0366 15.9525 14.9567 15.9368C14.8768 15.9211 14.7947 15.9215 14.715 15.938C14.6353 15.9545 14.5597 15.9868 14.4926 16.0329C14.4256 16.079 14.3684 16.1381 14.3245 16.2066C13.7337 17.0815 13.01 17.8588 12.1795 18.5105C11.9778 18.6633 11.2261 19.2438 10.9084 19.1216C10.6884 19.0544 10.8167 18.6205 10.8595 18.4372L11.1834 17.4777C11.3178 17.0866 13.6584 10.1444 13.915 9.34994C14.2939 8.18882 14.1289 7.04605 12.3995 7.32105C11.9289 7.36994 7.15613 7.98716 7.07057 7.99327C6.99032 7.99849 6.91188 8.01946 6.83973 8.05499C6.76759 8.09052 6.70314 8.13991 6.65009 8.20035C6.59703 8.26078 6.55639 8.33108 6.5305 8.40722C6.50461 8.48336 6.49397 8.56385 6.49918 8.6441C6.5044 8.72436 6.52537 8.80279 6.5609 8.87494C6.59643 8.94709 6.64583 9.01153 6.70626 9.06459C6.7667 9.11765 6.83699 9.15828 6.91313 9.18417C6.98927 9.21007 7.06976 9.22071 7.15002 9.21549C7.15002 9.21549 8.98335 8.97716 9.18502 8.95882C9.28831 8.94874 9.39232 8.96876 9.48449 9.01647C9.57666 9.06419 9.65306 9.13755 9.70446 9.22771C9.81519 9.57001 9.80002 9.94061 9.66168 10.2727C9.5028 10.8838 6.99113 17.9605 6.91168 18.3699C6.82648 18.7126 6.85013 19.0732 6.97937 19.4018C7.1086 19.7304 7.337 20.0105 7.63279 20.2033C8.188 20.5733 8.84906 20.7515 9.51502 20.7105C10.1625 20.7026 10.8029 20.5741 11.4034 20.3316C12.925 19.7205 14.5139 18.0949 15.3511 16.8177C15.4232 16.6879 15.4456 16.5364 15.4141 16.3913C15.3826 16.2462 15.2994 16.1176 15.18 16.0294Z" fill="#404040"/>
</svg>
