<?xml version="1.0" encoding="UTF-8"?>
<!DOCTYPE svg PUBLIC "-//W3C//DTD SVG 1.1//EN" "http://www.w3.org/Graphics/SVG/1.1/DTD/svg11.dtd">
<!-- Creator: CorelDRAW 2017 -->
<svg xmlns="http://www.w3.org/2000/svg" xml:space="preserve" width="101.6mm" height="123.867mm" version="1.1" style="shape-rendering:geometricPrecision; text-rendering:geometricPrecision; image-rendering:optimizeQuality; fill-rule:evenodd; clip-rule:evenodd"
viewBox="0 0 10159.98 12386.72"
 xmlns:xlink="http://www.w3.org/1999/xlink">
 <defs>
  <style type="text/css">
   <![CDATA[
    .fil1 {fill:#00A1E9}
    .fil3 {fill:#105880}
    .fil2 {fill:#E85424}
    .fil0 {fill:#00A1E9;fill-rule:nonzero}
   ]]>
  </style>
 </defs>
 <g id="Layer_x0020_1">
  <metadata id="CorelCorpID_0Corel-Layer"/>
  <g id="_2115516571184">
   <path class="fil0" d="M2212.66 7862.24l0 -864.41 593.98 0 0 146.08 -418.92 0 0 205.24 362.17 0 0 146.08 -362.17 0 0 367.01 -175.06 0zm731.41 0l0 -864.41 175.05 0 0 864.41 -175.05 0zm295.57 -280.09l170.23 -16.9c10.26,56.94 30.79,98.59 61.97,125.35 31.18,26.77 73.24,40.05 126.16,40.05 55.93,0 98.19,-11.88 126.56,-35.62 28.37,-23.74 42.66,-51.51 42.66,-83.3 0,-20.53 -6.04,-37.83 -17.91,-52.31 -11.87,-14.28 -32.8,-26.76 -62.58,-37.22 -20.32,-7.25 -66.6,-19.72 -139.04,-37.83 -93.15,-23.34 -158.54,-51.91 -196.17,-85.92 -52.92,-47.69 -79.28,-105.84 -79.28,-174.45 0,-44.07 12.47,-85.52 37.22,-123.95 24.95,-38.43 60.77,-67.61 107.65,-87.73 46.89,-20.12 103.22,-30.19 169.62,-30.19 108.05,0 189.54,23.95 244.07,72.04 54.73,48.09 83.31,112.08 86.12,192.36l-175.05 6.04c-7.45,-44.67 -23.34,-76.66 -47.69,-96.18 -24.35,-19.52 -60.97,-29.38 -109.66,-29.38 -50.31,0 -89.74,10.46 -118.11,31.39 -18.31,13.48 -27.56,31.39 -27.56,53.93 0,20.52 8.65,38.03 25.95,52.51 21.93,18.72 75.25,38.03 159.96,58.15 84.71,19.92 147.29,40.85 187.73,62.18 40.65,21.53 72.44,50.71 95.38,87.93 22.94,37.23 34.41,83.1 34.41,137.62 0,49.5 -13.69,95.98 -41.25,139.24 -27.57,43.26 -66.4,75.46 -116.71,96.39 -50.3,21.12 -113.08,31.59 -188.13,31.59 -109.25,0 -193.16,-25.16 -251.71,-75.66 -58.56,-50.3 -93.37,-123.75 -104.84,-220.13zm845.1 280.09l0 -864.41 175.05 0 0 864.41 -175.05 0zm341.45 0l0 -864.41 279.88 0c106.04,0 175.06,4.23 207.25,12.88 49.5,13.08 90.95,41.25 124.35,84.71 33.41,43.46 50.11,99.6 50.11,168.42 0,53.12 -9.66,97.59 -28.78,133.81 -19.31,36.21 -43.66,64.59 -73.24,85.31 -29.58,20.52 -59.76,34.21 -90.35,40.85 -41.65,8.25 -101.81,12.47 -180.69,12.47l-113.47 0 0 325.96 -175.06 0zm175.06 -718.33l0 246.29 95.16 0c68.62,0 114.29,-4.63 137.43,-13.68 23.14,-9.06 41.25,-23.14 54.33,-42.66 13.08,-19.32 19.72,-41.65 19.72,-67.41 0,-31.59 -9.26,-57.55 -27.57,-78.07 -18.51,-20.52 -41.65,-33.4 -70.02,-38.63 -20.72,-3.83 -62.38,-5.84 -125.16,-5.84l-83.89 0zm943.88 -146.08l175.06 0 0 468.43c0,74.45 2.21,122.53 6.44,144.46 7.44,35.42 24.95,63.99 52.7,85.32 27.97,21.53 66,32.19 114.3,32.19 48.89,0 85.91,-10.06 110.87,-30.38 24.95,-20.32 39.84,-45.07 44.87,-74.65 5.03,-29.58 7.64,-78.47 7.64,-146.88l0 -478.49 175.06 0 0 454.55c0,103.82 -4.63,177.26 -14.09,220.12 -9.45,42.85 -26.76,79.07 -52.11,108.65 -25.15,29.58 -58.96,52.92 -101.21,70.43 -42.46,17.5 -97.59,26.36 -165.8,26.36 -82.3,0 -144.67,-9.46 -187.12,-28.58 -42.46,-19.11 -76.06,-43.86 -100.81,-74.45 -24.75,-30.58 -40.85,-62.37 -48.7,-95.98 -11.47,-49.49 -17.1,-122.73 -17.1,-219.51l0 -461.59zm871.86 864.41l0 -864.41 169.42 0 355.74 579.29 0 -579.29 161.78 0 0 864.41 -174.86 0 -350.31 -568.22 0 568.22 -161.77 0zm825.98 -280.09l170.23 -16.9c10.26,56.94 30.78,98.59 61.97,125.35 31.18,26.77 73.23,40.05 126.15,40.05 55.94,0 98.2,-11.88 126.57,-35.62 28.37,-23.74 42.65,-51.51 42.65,-83.3 0,-20.53 -6.03,-37.83 -17.9,-52.31 -11.88,-14.28 -32.8,-26.76 -62.58,-37.22 -20.32,-7.25 -66.6,-19.72 -139.04,-37.83 -93.15,-23.34 -158.55,-51.91 -196.18,-85.92 -52.92,-47.69 -79.28,-105.84 -79.28,-174.45 0,-44.07 12.48,-85.52 37.23,-123.95 24.95,-38.43 60.77,-67.61 107.65,-87.73 46.88,-20.12 103.21,-30.19 169.61,-30.19 108.06,0 189.55,23.95 244.08,72.04 54.73,48.09 83.3,112.08 86.12,192.36l-175.06 6.04c-7.44,-44.67 -23.34,-76.66 -47.69,-96.18 -24.34,-19.52 -60.97,-29.38 -109.66,-29.38 -50.3,0 -89.73,10.46 -118.1,31.39 -18.31,13.48 -27.57,31.39 -27.57,53.93 0,20.52 8.65,38.03 25.96,52.51 21.93,18.72 75.24,38.03 159.95,58.15 84.72,19.92 147.29,40.85 187.74,62.18 40.64,21.53 72.44,50.71 95.37,87.93 22.94,37.23 34.41,83.1 34.41,137.62 0,49.5 -13.68,95.98 -41.25,139.24 -27.56,43.26 -66.4,75.46 -116.7,96.39 -50.31,21.12 -113.09,31.59 -188.14,31.59 -109.25,0 -193.16,-25.16 -251.71,-75.66 -58.55,-50.3 -93.36,-123.75 -104.83,-220.13z"/>
   <g>
    <path class="fil0" d="M564.28 6946.29l144.29 -249.99c20.31,-35.32 32.43,-63.66 36.34,-85.03 2.68,-15.34 1.2,-30.01 -4.24,-43.8l12.24 -4.82 97.67 247.74 -12.22 4.82c-7.65,-15.14 -14.14,-24.23 -19.42,-27.42 -5.39,-3.14 -10.62,-3.72 -15.89,-1.64 -9.96,3.92 -24.46,21.98 -43.43,54.41l-94.19 163.29 21.44 12.19 130.53 -51.46c25.07,-9.89 40.1,-17.48 45.13,-22.64 4.98,-5.3 8.13,-12.78 9.29,-22.52 1.26,-9.78 -1.63,-23.48 -8.58,-41.11l12.22 -4.82 94.79 240.42 -12.22 4.82 -6.2 -15.71c-5.44,-13.81 -12.37,-23.97 -20.59,-30.43 -5.78,-4.8 -13.25,-7.24 -22.57,-7.31 -6.64,-0.3 -22.03,4.24 -46.15,13.75l-314.55 124.02c-24.6,9.7 -39.44,17.07 -44.55,22.01 -5.08,5.05 -8.45,12.34 -9.93,21.93 -1.61,9.64 0.28,21.1 5.58,34.54l6.19 15.72 -12.24 4.82 -93.37 -236.81 12.24 -4.83c6.34,16.06 13.61,27.48 21.6,34.04 5.77,4.78 13.18,7.42 22.35,7.82 6.97,0.43 22.65,-4.08 47.01,-13.69l148.87 -58.7 -212.72 -121.14c-29.97,-16.6 -51.11,-22.4 -63.23,-17.62 -9.11,3.6 -14.21,11.41 -15.51,23.58 -0.61,6.2 2.73,19.58 10.06,40.25l-12.25 4.83 -73.17 -185.59 12.24 -4.82c7.77,16.2 15.92,28.1 24.58,35.62 8.55,7.59 33.7,22.9 75.26,46.02l167.3 95.26zm-332.56 -446.22l200.96 -57.05 -2.78 -9.81c-8.92,-31.38 -25.15,-51.31 -48.77,-59.88 -23.59,-8.45 -55.06,-9.3 -94.36,-2.3l-4.01 -14.13 258.27 -73.34 4.01 14.14c-27.34,10.85 -48.65,23.6 -63.87,37.98 -15.33,14.54 -24.29,28.74 -26.97,42.91 -2.68,14.16 -0.67,33.03 6.02,56.6l138.69 -39.38c27.17,-7.7 43.35,-13.52 48.76,-17.59 5.45,-3.97 9.18,-9.72 11.22,-17.13 2.05,-7.42 1.15,-18.16 -2.84,-32.18l-8.38 -29.52c-13.07,-46.02 -34.22,-79.96 -63.33,-101.72 -29.1,-21.77 -67.16,-32.55 -114.24,-32.18l-3.84 -13.53 162.99 -22.27 120.92 425.86 -12.64 3.59 -4.62 -16.25c-4.06,-14.26 -9.94,-25.06 -17.49,-32.3 -5.27,-5.34 -12.47,-8.53 -21.73,-9.51 -6.58,-0.95 -22.34,2.05 -47.27,9.13l-325.27 92.36c-22.46,6.38 -36.05,10.91 -40.91,13.62 -7.89,4.78 -13.2,11.12 -15.91,19 -4.22,11.12 -4.14,24.63 0.41,40.63l4.61 16.26 -12.66 3.59 -117.09 -412.35 145.9 -41.42 4.01 14.14c-33.75,17.09 -56.49,34.27 -68.4,51.33 -11.92,17.05 -18.26,38.16 -18.99,63.44 -0.51,14.75 4.45,40.69 15.02,77.9l14.58 51.36zm123.92 -877.34l180.11 -12.51 79.85 447.11 -12.95 2.31 -2.97 -16.63c-2.6,-14.6 -7.39,-25.92 -14.17,-33.89 -4.72,-5.84 -11.56,-9.72 -20.69,-11.62 -6.45,-1.6 -22.43,-0.19 -47.94,4.36l-332.86 59.45c-26.03,4.65 -42.03,8.95 -48.02,12.77 -5.97,3.94 -10.72,10.42 -14.07,19.54 -3.47,9.13 -3.89,20.73 -1.35,34.96l2.97 16.63 -12.95 2.31 -48.02 -268.88 12.95 -2.32 3.95 22.1c2.61,14.6 7.38,25.92 14.19,34 4.7,5.85 11.59,9.86 20.77,12.15 6.44,1.61 22.43,0.19 47.95,-4.37l322.19 -57.54c25.77,-4.59 42,-9.07 48.59,-13.27 6.59,-4.18 10.75,-10.94 12.76,-20.22 1.04,-6.6 -0.48,-21.79 -4.71,-45.4l-7.48 -41.9c-4.75,-26.65 -13.42,-48.03 -25.98,-64.12 -12.58,-16.09 -30.18,-28.94 -52.81,-38.26 -22.63,-9.32 -54.79,-16.27 -96.46,-20.76l-2.85 -16zm-342.33 -64.11l-6.69 -264.54 13.16 -0.33 0.33 13.29c0.5,19.97 2.91,33.58 7.36,40.95 4.31,7.38 10.25,12.51 17.66,15.43 7.44,3.02 25.92,4.11 55.44,3.37l250.86 -6.35c45.89,-1.16 76.11,-5.4 90.76,-12.61 14.77,-7.33 26.73,-18.99 36.26,-35.1 9.4,-16.1 13.78,-36.34 13.18,-60.44 -0.7,-27.72 -7.48,-51.15 -20.48,-70.31 -13,-19.15 -30.51,-33.28 -52.67,-42.4 -22.16,-9.11 -60.44,-13.04 -114.85,-11.67l-208.97 5.29c-23.07,0.58 -39.65,3.45 -49.32,8.46 -9.8,5.03 -16.49,11.25 -20.17,18.7 -5.5,11.5 -8.07,27.55 -7.54,48.31l-13.16 0.33 -4.48 -177.14 13.16 -0.33 0.27 10.58c0.36,14.31 3.62,26.09 9.66,35.49 6.05,9.39 14.99,16.13 26.82,20.08 8.21,3.03 22.82,4.33 43.96,3.79l194.66 -4.92c60.21,-1.51 103.75,1.39 130.63,8.58 27.03,7.31 52,25.89 75.21,56.01 23.2,30.25 35.48,71.73 36.82,124.85 1.13,44.34 -3.94,78.65 -15.19,103.06 -15.28,33.41 -35.33,57.27 -60.26,71.44 -24.79,14.17 -58.52,21.85 -101.06,22.93l-250.99 6.35c-29.78,0.74 -48.18,2.9 -55.31,6.3 -7.14,3.54 -12.8,9.22 -16.98,17.45 -4.05,8.23 -5.73,23.11 -4.93,44.76l-13.15 0.34zm374.54 -885.4l-13.6 178.85 48.2 26.04c16.17,8.35 29.8,12.87 40.73,13.71 14.54,1.1 25.63,-3.88 33.46,-14.79 4.5,-6.51 8.86,-22.99 12.94,-49.46l13.12 1 -12.92 169.87 -13.12 -0.99c-1.44,-18.5 -8,-34.24 -19.59,-46.89 -11.7,-12.79 -36.56,-29.43 -74.59,-49.65l-393.6 -213.58 0.55 -7.19 432.81 -152.42c41.46,-14.57 67.88,-27.05 79.16,-37.57 8.63,-8 14.04,-19.62 16.52,-35.21l13.11 0.99 -18.79 247.14 -13.11 -1 0.77 -10.15c1.5,-19.8 -0.26,-34.03 -5.31,-42.44 -3.57,-5.82 -9.28,-8.97 -16.87,-9.55 -4.62,-0.36 -9.43,-0.07 -14.43,1.1 -2.22,0.34 -12.16,3.34 -29.55,9.14l-65.89 23.05zm-28.69 9.97l-180.04 63 168.3 91.3 11.74 -154.3zm5.02 -479.06l142.44 25.45c27.18,4.85 44.73,6.27 52.33,4.09 7.69,-2.02 14.34,-6.99 20.03,-14.62 5.71,-7.75 10.68,-23.12 14.81,-46.22l12.94 2.32 -46.11 258.21 -12.95 -2.32c4.17,-23.36 4.85,-39.62 2,-48.63 -2.82,-9.16 -7.48,-16.02 -13.75,-20.54 -6.37,-4.67 -23.21,-9.39 -50.38,-14.24l-329.81 -58.91c-27.29,-4.87 -44.73,-6.27 -52.32,-4.09 -7.69,2.02 -14.35,7 -20.04,14.63 -5.7,7.76 -10.67,23.12 -14.8,46.22l-12.95 -2.32 41.9 -234.59c10.91,-61.07 23.05,-104.88 36.61,-131.67 13.43,-26.81 33.18,-47.12 59.23,-60.94 25.92,-13.85 54.17,-17.97 84.76,-12.5 37.2,6.64 65.64,25.6 85.23,56.74 12.42,19.91 19.68,45.96 21.8,78.17l192.6 -90.43c24.82,-12.08 40.58,-21.06 47.24,-26.81 9.42,-8.8 15.74,-19.99 18.91,-33.3l13.7 2.45 -28.38 158.94 -259.12 121.78 -5.92 33.13zm-246.77 -44.07l220.12 39.31 3.79 -21.2c6.17,-34.52 7.61,-60.99 4.45,-79.23 -3.28,-18.28 -12.31,-33.78 -26.93,-46.47 -14.63,-12.7 -35.2,-21.48 -61.62,-26.2 -38.33,-6.85 -68.25,-2.9 -89.75,11.87 -21.5,14.76 -35.8,42.07 -42.95,82.06l-7.11 39.86zm220.99 -935.27l170.77 57.79 -4.22 12.45c-51.83,0.29 -95.27,12.42 -130.3,36.24 -35.01,23.81 -58.96,54.78 -71.82,92.77 -12.32,36.41 -12.4,70.01 -0.18,101.09 12.22,31.09 34.9,57.83 67.9,80.16 33.14,22.38 68.82,40.03 107.19,53.01 46.53,15.74 89.02,24.13 127.8,25.01 38.78,0.86 70.42,-8.16 95.18,-27.02 24.75,-18.84 42.74,-45.02 54.11,-78.61 3.96,-11.73 6.8,-24.12 8.36,-37.2 1.73,-13.17 2.33,-26.98 1.9,-41.43l-100.4 -33.97c-19.42,-6.57 -32.46,-9.49 -39.07,-8.86 -6.48,0.66 -13.6,4.38 -20.9,11.03 -7.4,6.62 -13.07,15.73 -16.99,27.34l-4.21 12.45 -12.47 -4.21 79.85 -236.01 12.47 4.23c-4.85,18.36 -6.67,31.78 -5.28,40.14 1.42,8.25 5.79,15.84 13.31,22.61 3.78,3.73 14.77,8.68 32.72,14.74l100.41 33.99c3.3,35.7 2.78,71.45 -1.47,107.32 -4.35,35.82 -12.59,71.84 -24.79,107.88 -15.54,45.92 -34.71,82.05 -57.59,108.2 -22.75,26.2 -48.33,47.5 -76.59,63.81 -28.25,16.3 -57.38,26.73 -87.33,31.16 -38.52,5.61 -78.22,1.44 -118.89,-12.33 -73.06,-24.72 -125.94,-71.2 -158.9,-139.53 -32.92,-68.46 -36.22,-141.6 -9.88,-219.41 8.18,-24.18 17.32,-45.19 27.68,-63.33 5.51,-9.84 16.63,-25 33.53,-45.55 16.85,-20.44 25.96,-32.88 27.4,-37.15 2.28,-6.72 1.94,-13.78 -1,-21.17 -2.94,-7.4 -10.45,-15.79 -22.51,-25.19l4.21 -12.45zm532.98 -250.67l-81.77 159.66 34.36 42.67c11.69,13.95 22.5,23.4 32.25,28.4 12.98,6.64 25.14,6.34 36.58,-0.69 6.66,-4.26 17.07,-17.76 31.07,-40.59l11.71 5.99 -77.67 151.63 -11.7 -6c5.83,-17.59 5.88,-34.66 0.08,-50.8 -5.82,-16.33 -22.31,-41.29 -49.56,-74.65l-280.24 -349.28 3.29 -6.43 458.07 26.99c43.86,2.63 73.06,1.34 87.53,-3.99 11.05,-4.05 20.53,-12.66 28.86,-26.07l11.7 5.98 -112.98 220.61 -11.71 -6 4.65 -9.06c9.05,-17.68 12.93,-31.48 11.53,-41.19 -1.04,-6.75 -5.08,-11.86 -11.86,-15.34 -4.13,-2.12 -8.67,-3.72 -13.73,-4.57 -2.19,-0.55 -12.51,-1.62 -30.77,-3.01l-69.69 -4.26zm-30.32 -1.91l-190.38 -11.59 119.84 149.32 70.54 -137.73zm412.99 -677.81l-194.49 -310.17 120.26 -169.09 10.72 7.63 -9.65 13.56c-8.66,12.18 -13.48,23.62 -14.3,34.12 -0.73,7.25 1.21,14.77 5.97,22.76 3.48,5.8 15.68,16.21 36.81,31.24l275.55 195.97c21.53,15.31 35.81,23.72 42.74,25.33 7,1.5 14.94,0.34 23.94,-3.86 9.04,-4.02 17.62,-11.85 25.91,-23.51l9.64 -13.56 10.71 7.63 -154.7 217.53 -10.72 -7.61 9.64 -13.57c8.67,-12.19 13.49,-23.64 14.42,-34.06 0.71,-7.24 -1.31,-14.85 -6.19,-22.9 -3.37,-5.73 -15.57,-16.15 -36.69,-31.17l-309.39 -220.04 266.43 431.29 -5.23 7.35 -493.67 -105.96 294.04 209.11c20.71,14.72 33.8,23.24 39.27,25.55 12.24,4.59 24.76,4.8 37.63,0.5 12.87,-4.3 26.15,-16.07 39.75,-35.19l10.71 7.62 -101.79 143.13 -10.72 -7.63 3.14 -4.4c6.78,-9.11 11.44,-18.77 13.87,-29.08 2.49,-10.4 2.45,-19.46 0.01,-27.37 -2.39,-8.01 -7.71,-16.55 -15.91,-25.71 -2.01,-2.06 -12.38,-9.75 -31.29,-23.2l-264.2 -187.88c-21.54,-15.33 -35.74,-23.85 -42.63,-25.27 -6.93,-1.61 -14.95,-0.35 -24.06,3.79 -9.1,4.12 -17.76,12.06 -26.05,23.72l-9.48 13.35 -10.73 -7.64 121.22 -170.45 359.51 78.14zm479.15 -518.22l-123.78 129.83 20.82 50.67c7.23,16.7 14.92,28.83 22.85,36.4 10.55,10.06 22.3,13.23 35.26,9.74 7.61,-2.2 21.42,-12.19 41.34,-30.09l9.52 9.07 -117.56 123.3 -9.52 -9.07c10.59,-15.21 15.49,-31.56 14.53,-48.7 -0.96,-17.3 -9.67,-45.91 -26.31,-85.64l-169.43 -414.54 4.99 -5.22 431.51 156.06c41.31,14.98 69.66,22.06 85.06,21.05 11.74,-0.73 23.28,-6.31 35.07,-16.8l9.52 9.07 -171.02 179.4 -9.52 -9.08 7.03 -7.37c13.7,-14.37 21.35,-26.5 22.75,-36.21 0.94,-6.77 -1.48,-12.82 -7,-18.07 -3.36,-3.21 -7.25,-6.03 -11.87,-8.29 -1.94,-1.14 -11.53,-5.11 -28.64,-11.63l-65.6 -23.88zm-28.53 -10.45l-179.24 -65.22 72.46 177.22 106.78 -112zm312.73 -385.88l98.48 125.33c16.33,20.78 27.65,32.89 33.94,36.31 6.4,3.33 14.34,4.47 23.96,3.14 9.7,-1.23 20.14,-6.31 31.29,-15.06l13.29 -10.45 8.12 10.34 -209.89 164.93 -8.13 -10.34 13.28 -10.43c11.66,-9.17 19.42,-18.71 23.25,-28.44 2.94,-6.91 3.15,-14.77 0.56,-23.72 -1.62,-6.45 -10.38,-19.89 -26.4,-40.27l-208.91 -265.86c-16.34,-20.78 -27.66,-32.9 -33.85,-36.39 -6.3,-3.42 -14.23,-4.56 -23.85,-3.23 -9.7,1.22 -20.13,6.31 -31.49,15.23l-13.28 10.45 -8.14 -10.35 209.9 -164.93 8.13 10.34 -13.29 10.44c-11.56,9.09 -19.22,18.55 -23.04,28.28 -2.85,6.82 -3.15,14.77 -0.75,23.88 1.6,6.44 10.36,19.88 26.38,40.27l89.88 114.37 142.97 -112.34 -89.88 -114.38c-16.33,-20.78 -27.65,-32.89 -33.84,-36.39 -6.29,-3.42 -14.24,-4.55 -24.07,-3.06 -9.79,1.29 -20.23,6.38 -31.49,15.24l-13.06 10.27 -8.14 -10.35 209.89 -164.93 8.13 10.34 -13.08 10.29c-11.77,9.24 -19.52,18.78 -23.15,28.35 -2.94,6.9 -3.24,14.86 -0.85,23.96 1.61,6.44 10.37,19.88 26.4,40.28l208.91 265.85c16.33,20.79 27.65,32.89 33.84,36.39 6.29,3.41 14.24,4.55 24.06,3.06 9.8,-1.3 20.23,-6.38 31.49,-15.22l13.09 -10.28 8.12 10.33 -209.89 164.93 -8.13 -10.34 13.08 -10.27c11.76,-9.25 19.52,-18.78 23.15,-28.36 2.94,-6.9 3.25,-14.85 0.86,-23.96 -1.62,-6.45 -10.39,-19.89 -26.4,-40.27l-98.49 -125.33 -142.96 112.35zm661.4 -341.37l-155.5 89.41 5.6 54.49c2.2,18.07 6.14,31.88 11.6,41.38 7.26,12.64 17.62,19.01 31.06,19.34 7.9,0.06 23.98,-5.61 48.16,-17.13l6.55 11.4 -147.69 84.91 -6.56 -11.39c14.47,-11.59 23.81,-25.89 27.74,-42.58 4,-16.87 3.75,-46.78 -0.94,-89.6l-44.95 -445.55 6.26 -3.6 369.56 272c35.37,26.07 60.55,40.89 75.59,44.28 11.48,2.64 24.12,0.57 38.4,-6.15l6.56 11.4 -214.86 123.54 -6.55 -11.4 8.82 -5.08c17.22,-9.9 27.99,-19.35 32.09,-28.27 2.81,-6.23 2.21,-12.71 -1.59,-19.31 -2.31,-4.03 -5.25,-7.84 -9.03,-11.31 -1.54,-1.65 -9.61,-8.17 -24.18,-19.29l-56.14 -41.49zm-24.38 -18.11l-153.4 -113.36 19.25 190.5 134.15 -77.14zm416.68 -605.69l73.96 154.21 -14.09 6.38c-24.33,-35.99 -54.86,-59.98 -91.68,-71.91 -36.92,-11.89 -70.49,-11.02 -100.81,2.68 -23.5,10.64 -39.25,25.26 -47.2,43.99 -8.11,18.67 -8.4,36.21 -1.07,52.43 4.68,10.33 11.29,18.39 19.77,24.31 11.42,7.72 26.94,13.57 46.53,17.47 14.21,2.62 45.23,4.88 92.95,6.51 66.88,2.04 115.25,10.73 145.06,25.98 29.71,15.31 51.43,38.32 65.34,69.1 17.65,39.02 17.51,79.41 -0.23,121.25 -17.73,41.84 -50.01,73.43 -96.9,94.63 -14.69,6.64 -29.36,11.42 -43.74,14.38 -14.48,3.01 -33.48,4.81 -56.99,5.4 -13.12,0.41 -23.18,2.26 -30.35,5.5 -6,2.71 -11.15,7.88 -15.79,15.49 -4.57,7.72 -6.79,17.22 -6.59,28.59l-11.99 5.43 -79.68 -176.27 11.99 -5.41c32.46,44.89 69.08,73.92 109.6,86.86 40.65,12.91 77.57,11.94 110.94,-3.15 25.74,-11.63 43.11,-27.98 52.07,-48.88 8.95,-20.89 9.25,-40.55 0.81,-59.24 -4.94,-10.92 -12.71,-20.29 -23.26,-27.98 -10.55,-7.67 -23.78,-13.45 -40.01,-17.42 -16.18,-3.87 -42.8,-6.41 -79.86,-7.64 -51.95,-1.57 -90.57,-5.61 -115.77,-11.9 -25.11,-6.35 -46.76,-16.38 -64.93,-29.96 -18.23,-13.69 -32.18,-31.44 -42.01,-53.18 -16.84,-37.25 -17.56,-75.14 -2.02,-113.71 15.41,-38.54 43.95,-67.14 85.55,-85.95 15.16,-6.85 30.64,-11.73 46.51,-14.52 12.08,-2.06 27.53,-2.96 46.39,-2.56 18.85,0.38 31.32,-0.86 37.53,-3.67 6,-2.71 9.89,-6.6 11.66,-11.78 1.76,-5.19 1.07,-15.49 -2.26,-30.68l10.57 -4.78zm535.72 336.99l4.82 12.23 -248.33 97.91 -4.83 -12.23 15.71 -6.2c13.81,-5.44 23.97,-12.36 30.43,-20.59 4.79,-5.77 7.24,-13.25 7.31,-22.57 0.29,-6.63 -4.24,-22.02 -13.75,-46.14l-124.03 -314.55c-9.7,-24.6 -17.07,-39.44 -21.99,-44.56 -5.06,-5.08 -12.35,-8.45 -21.93,-9.93 -9.65,-1.61 -21.1,0.28 -34.54,5.59l-15.72 6.19 -4.83 -12.24 248.34 -97.92 4.82 12.24 -15.71 6.2c-13.69,5.39 -23.73,12.26 -30.19,20.49 -4.66,5.73 -7.24,13.26 -7.54,22.67 -0.31,6.63 4.23,22.02 13.74,46.14l124.03 314.56c9.69,24.59 17.06,39.43 22.11,44.51 5.18,5.02 12.47,8.39 22.07,9.87 9.64,1.6 21.1,-0.27 34.3,-5.49l15.71 -6.18zm229.52 -597.19l50.42 163.44 -14.89 4.22c-18.75,-39.18 -45.4,-67.4 -80.06,-84.64 -34.78,-17.2 -68.1,-21.29 -100.12,-12.2 -24.81,7.05 -42.53,19.19 -53.16,36.55 -10.77,17.27 -13.64,34.57 -8.78,51.69 3.1,10.92 8.45,19.85 15.97,26.96 10.16,9.33 24.64,17.41 43.45,24.14 13.66,4.7 44.01,11.49 90.97,20.14 65.85,11.87 112.41,27.61 139.64,47.09 27.13,19.5 45.22,45.47 54.45,77.97 11.7,41.19 5.61,81.12 -18.1,119.89 -23.7,38.76 -60.29,65.24 -109.79,79.3 -15.51,4.41 -30.73,6.98 -45.38,7.8 -14.77,0.83 -33.83,-0.18 -57.17,-3.08 -13.03,-1.53 -23.26,-1.18 -30.83,0.97 -6.33,1.79 -12.19,6.15 -17.9,13 -5.65,6.96 -9.24,16.03 -10.73,27.32l-12.66 3.59 -52.84 -186.08 12.67 -3.6c25.49,49.19 57.43,83.3 95.6,102.08 38.3,18.75 74.96,23.22 110.19,13.22 27.17,-7.71 46.77,-21.32 58.71,-40.67 11.93,-19.33 15.13,-38.75 9.52,-58.47 -3.27,-11.54 -9.57,-21.94 -18.87,-31.1 -9.31,-9.15 -21.54,-16.81 -37.01,-23.14 -15.44,-6.2 -41.38,-12.64 -77.86,-19.31 -51.15,-9.21 -88.76,-18.91 -112.76,-28.85 -23.89,-9.97 -43.83,-23.08 -59.8,-39.18 -16,-16.24 -27.2,-35.85 -33.71,-58.8 -11.17,-39.33 -6.29,-76.9 14.76,-112.77 20.93,-35.85 53.37,-59.93 97.28,-72.4 16,-4.55 32.04,-7.08 48.14,-7.5 12.25,-0.27 27.67,1.12 46.27,4.29 18.59,3.16 31.1,3.78 37.67,1.9 6.32,-1.79 10.75,-5.07 13.26,-9.93 2.51,-4.87 3.34,-15.16 2.28,-30.67l11.17 -3.17zm872.64 -153.89l2.31 12.96c-9.25,2.43 -16.78,6.53 -22.43,12.25 -5.64,5.85 -10.1,13.86 -13.51,24.16 -0.85,3.3 -5.15,23.97 -12.76,62.01l-83.66 444.75 -13.59 2.42 -183.62 -306.36 -79.67 353.39 -13.2 2.35 -240.17 -382.45c-24.34,-38.75 -40.57,-62.05 -48.85,-69.61 -8.29,-7.56 -20.5,-10.61 -36.64,-9.3l-2.31 -12.96 218.73 -39.07 2.31 12.96c-17.55,3.65 -28.75,8.4 -33.71,14.4 -4.98,5.86 -6.81,12.48 -5.51,19.72 1.7,9.51 11.39,28.61 29.08,57.29l142.66 227.34 45.54 -207.77 -29.37 -48.59c-16.66,-27.29 -28.93,-45.4 -36.9,-54.07 -7.97,-8.66 -16.35,-14.5 -25.21,-17.23 -8.76,-2.76 -20.95,-2.81 -36.55,-0.02l-2.32 -12.96 242.47 -43.3 2.31 12.95c-16.97,3.28 -29.02,6.89 -36.08,10.77 -4.9,2.56 -8.42,6.35 -10.61,10.92 -2.3,4.74 -2.86,9.68 -1.93,14.89 1.04,5.84 9.66,22.51 26.11,50.1l134.48 222.64 43.5 -230.98c4.61,-24.02 7.2,-40.33 7.74,-49.07 0.56,-8.61 0.08,-16.39 -1.17,-23.37 -1.83,-10.28 -6.69,-17.67 -14.74,-22.39 -7.9,-4.61 -21.79,-5.4 -41.43,-2.42l-2.31 -12.95 131.01 -23.4zm332.41 381.25l-179.33 4.54 -21.03 50.58c-6.67,16.93 -9.8,30.95 -9.52,41.9 0.36,14.58 6.44,25.12 18.09,31.8 6.93,3.82 23.76,6.5 50.5,7.88l0.34 13.15 -170.3 4.3 -0.34 -13.15c18.24,-3.3 33.26,-11.41 44.66,-24.22 11.55,-12.93 25.59,-39.34 41.87,-79.22l172.74 -413.16 7.21 -0.18 195.34 415.2c18.69,39.78 33.77,64.81 45.38,74.96 8.83,7.78 20.94,11.99 36.7,12.88l0.33 13.15 -247.77 6.26 -0.34 -13.15 10.18 -0.25c19.85,-0.5 33.84,-3.69 41.69,-9.57 5.44,-4.14 8,-10.14 7.8,-17.75 -0.12,-4.63 -0.88,-9.38 -2.55,-14.24 -0.56,-2.19 -4.55,-11.76 -12.07,-28.48l-29.58 -63.23zm-12.83 -27.53l-80.86 -172.76 -73.84 176.66 154.7 -3.9zm699.72 72.22l-177.95 -22.6 -28.44 46.81c-9.16,15.73 -14.37,29.13 -15.75,39.99 -1.83,14.46 2.58,25.81 13.08,34.17 6.28,4.82 22.52,10.01 48.75,15.42l-1.66 13.04 -169 -21.47 1.66 -13.05c18.53,-0.5 34.6,-6.26 47.81,-17.19 13.37,-11.04 31.23,-35.03 53.35,-72l233.18 -382.31 7.15 0.91 130.38 439.95c12.45,42.14 23.58,69.16 33.52,80.95 7.56,9.02 18.88,15.01 34.34,18.27l-1.66 13.05 -245.88 -31.25 1.66 -13.03 10.1 1.27c19.7,2.51 34.01,1.47 42.65,-3.16 6.01,-3.26 9.44,-8.8 10.4,-16.35 0.59,-4.61 0.55,-9.42 -0.37,-14.48 -0.23,-2.23 -2.72,-12.32 -7.63,-29.96l-19.69 -66.98zm-8.52 -29.16l-53.84 -182.98 -99.67 163.47 153.51 19.51zm234.88 212.34l2.96 -12.82 16.46 3.81c14.46,3.33 26.16,3.65 34.9,0.77 8.7,-2.77 15.94,-7.71 21.41,-14.78 3.32,-4.67 8.05,-19.98 14.06,-45.99l76.04 -329.46c5.94,-25.76 8.27,-42.16 7.11,-49.17 -1.28,-7.06 -5.38,-13.96 -12.45,-20.62 -7.04,-6.79 -17.54,-11.72 -31.62,-14.97l-16.46 -3.79 2.97 -12.83 223.41 51.56c59.68,13.78 105.79,33.02 138.37,57.62 39.77,30.09 66.48,68.01 80.19,113.54 13.69,45.64 14.6,93.88 2.85,144.77 -8.09,35.07 -21.23,66.18 -39.38,93.22 -18.13,26.93 -38.36,48.05 -60.67,63.29 -22.4,15.08 -46.7,25.75 -72.77,32.04 -26.19,6.27 -56.93,8.7 -92.2,7.3 -15.63,-0.56 -39.59,-4.5 -71.76,-11.93l-223.42 -51.56zm298.92 -428.1l-89.99 389.9c-4.75,20.6 -6.67,33.53 -5.74,38.64 0.81,5.08 3.39,9.39 7.46,12.98 5.82,5.17 14.94,9.26 27.5,12.15 41.09,9.49 75.71,2.8 103.8,-20.24 38.25,-31.01 66.65,-86.38 85.01,-165.92 14.82,-64.21 16.57,-117.67 5.19,-160.66 -9.03,-33.71 -24.94,-58.83 -47.57,-75.44 -15.95,-11.75 -44.51,-22.18 -85.66,-31.41zm641.79 532.11l254.35 -263.3 193.03 76.11 -4.83 12.23 -15.47 -6.1c-13.92,-5.48 -26.19,-7.41 -36.56,-5.69 -7.22,1.05 -14.07,4.73 -20.67,11.27 -4.79,4.77 -11.97,19.11 -21.48,43.24l-124.03 314.55c-9.69,24.59 -14.42,40.46 -14.32,47.58 0.23,7.15 3.26,14.58 9.5,22.31 6.07,7.81 15.73,14.26 29.04,19.5l15.48 6.11 -4.83 12.23 -248.33 -97.92 4.82 -12.24 15.49 6.11c13.91,5.49 26.18,7.41 36.52,5.81 7.2,-1.05 14.1,-4.83 20.74,-11.5 4.76,-4.65 11.94,-19.01 21.45,-43.11l139.25 -353.2 -354.64 362.25 -8.39 -3.31 -15.75 -504.67 -132.35 335.67c-9.31,23.63 -14.42,38.39 -15.36,44.26 -1.51,12.98 1.3,25.18 8.56,36.64 7.27,11.46 21.89,21.52 43.71,30.13l-4.82 12.22 -163.4 -64.41 4.83 -12.24 5.03 1.99c10.47,4.4 20.97,6.6 31.55,6.47 10.71,-0.08 19.49,-2.29 26.58,-6.57 7.21,-4.23 14.21,-11.45 21.13,-21.61 1.52,-2.45 6.49,-14.35 15,-35.94l118.92 -301.6c9.7,-24.59 14.56,-40.43 14.27,-47.45 -0.1,-7.13 -3.24,-14.6 -9.44,-22.45 -6.2,-7.86 -15.98,-14.34 -29.29,-19.59l-15.24 -6 4.83 -12.25 194.58 76.73 10.54 367.74zm517.12 439.99l-6.56 11.39 -231.42 -133.05 6.56 -11.4 14.64 8.41c12.86,7.4 24.61,11.02 35.07,10.95 7.5,0.14 14.88,-2.61 22.21,-8.36 5.37,-3.91 14.57,-17.06 27.48,-39.53l168.54 -293.12c13.18,-22.92 20.18,-37.94 21.11,-44.98 0.82,-7.13 -1.09,-14.92 -5.92,-23.34 -4.76,-8.55 -13.37,-16.32 -25.89,-23.53l-14.65 -8.42 6.56 -11.4 231.42 133.06 -6.56 11.41 -14.65 -8.42c-12.75,-7.34 -24.38,-10.9 -34.83,-10.82 -7.4,-0.08 -14.89,2.61 -22.44,8.23 -5.37,3.9 -14.58,17.05 -27.49,39.53l-168.54 293.12c-13.18,22.92 -20.17,37.93 -21,45.05 -0.7,7.18 1.21,14.97 6.05,23.4 4.75,8.55 13.37,16.32 25.66,23.39l14.65 8.43zm470.99 -296.88l21.72 405.35 127.65 -179.49c18.02,-25.33 26.54,-44.89 25.65,-58.98 -1.28,-19.11 -13.78,-36.7 -37.31,-52.8l7.63 -10.72 138.09 98.2 -7.63 10.72c-19.29,-10.24 -33.27,-15.73 -41.9,-16.5 -8.6,-0.58 -17.52,1.94 -26.82,7.67 -9.19,5.81 -20.89,18.69 -35,38.55l-247.54 348.07 -10.4 -7.41 -34.34 -549.15 -189.54 266.51c-17.19,24.17 -23.38,44.45 -18.4,60.82 4.97,16.35 14.7,29.6 28.89,39.69l9.88 7.02 -7.62 10.73 -148.81 -105.83 7.62 -10.72c23.28,16.23 42.61,22.85 58.4,20.01 15.69,-2.93 31.42,-15.48 47.35,-37.86l210.23 -295.62 -1.02 -17.03c-0.76,-17.63 -3.23,-30.62 -7.52,-39.06 -4.19,-8.34 -12.54,-17.29 -24.95,-26.75l7.62 -10.72 148.07 105.3zm224.65 804.25l-8.6 9.94 -201.77 -174.77 8.6 -9.95 12.77 11.06c11.21,9.71 22.06,15.52 32.35,17.44 7.32,1.57 15.09,0.29 23.38,-3.97 6.01,-2.81 17.55,-13.97 34.53,-33.56l221.38 -255.56c17.31,-19.99 27.05,-33.4 29.3,-40.14 2.16,-6.83 1.78,-14.85 -1.35,-24.03 -3.03,-9.3 -10.02,-18.57 -20.93,-28.03l-12.77 -11.07 8.61 -9.94 201.77 174.78 -8.61 9.95 -12.77 -11.07c-11.12,-9.63 -21.86,-15.34 -32.13,-17.26 -7.25,-1.49 -15.11,-0.28 -23.59,3.8 -6.03,2.8 -17.57,13.95 -34.54,33.55l-221.38 255.58c-17.31,19.97 -27.04,33.38 -29.21,40.21 -2.06,6.91 -1.67,14.92 1.46,24.13 3.05,9.28 10.01,18.57 20.74,27.85l12.76 11.06zm632.17 -108.16l-115.18 126.42 -11.21 -10.67c24.24,-36.06 35.01,-73.36 32.26,-111.96 -2.83,-38.69 -16.24,-69.48 -40.33,-92.44 -18.67,-17.8 -38.13,-26.9 -58.48,-27.24 -20.35,-0.52 -36.7,5.8 -48.99,18.68 -7.83,8.21 -12.82,17.37 -15.12,27.46 -2.88,13.48 -2.48,30.06 1.27,49.68 2.9,14.15 12.45,43.75 28.84,88.6 23.21,62.75 33.3,110.85 30.36,144.2 -3.03,33.28 -16.22,62.06 -39.53,86.51 -29.55,30.99 -67.04,46.02 -112.48,45.28 -45.43,-0.74 -86.83,-18.8 -124.07,-54.31 -11.66,-11.13 -21.61,-22.93 -29.75,-35.14 -8.22,-12.3 -17.03,-29.24 -26.38,-50.81 -5.3,-12 -10.8,-20.63 -16.49,-26.07 -4.77,-4.53 -11.5,-7.38 -20.29,-8.81 -8.87,-1.34 -18.51,0.16 -28.98,4.62l-9.53 -9.08 133.48 -140.01 9.53 9.08c-29.44,46.95 -42.6,91.78 -39.39,134.2 3.29,42.52 18.05,76.37 44.56,101.64 20.43,19.49 42.11,29.46 64.84,29.92 22.72,0.46 41.07,-6.64 55.21,-21.48 8.28,-8.68 14.04,-19.39 17.21,-32.06 3.16,-12.66 3.54,-27.09 1.13,-43.62 -2.48,-16.45 -10.11,-42.08 -22.89,-76.89 -18.03,-48.74 -28.79,-86.06 -32.41,-111.79 -3.53,-25.63 -2.36,-49.47 3.4,-71.41 5.87,-22.03 17.07,-41.63 33.53,-58.9 28.2,-29.58 63.06,-44.46 104.65,-44.54 41.5,-0.18 78.72,15.54 111.76,47.04 12.04,11.48 22.38,23.99 30.92,37.66 6.45,10.42 13.08,24.4 19.79,42.03 6.72,17.63 12.53,28.71 17.48,33.42 4.76,4.54 9.83,6.69 15.3,6.38 5.46,-0.3 14.75,-4.82 27.58,-13.6l8.4 8.01zm389.95 462.75l-104.68 90.69 -8.62 -9.95c18.86,-27.07 30.38,-48.83 34.49,-65.35 4.21,-16.61 3.73,-34.12 -1.27,-52.48 -2.83,-10.17 -12.06,-24.36 -27.76,-42.49l-25.34 -29.24 -299.42 259.37c-19.99,17.31 -31.54,29.19 -34.64,35.65 -3.11,6.45 -3.79,14.54 -2.09,23.98 1.69,9.63 7.27,19.81 16.71,30.73l10.99 12.67 -9.94 8.62 -174.78 -201.77 9.93 -8.61 11.07 12.76c9.62,11.11 19.45,18.31 29.35,21.67 6.95,2.51 14.9,2.44 23.88,-0.39 6.36,-1.93 19.38,-11.32 38.97,-28.29l299.43 -259.38 -24.32 -28.07c-22.46,-25.92 -44.31,-39.94 -65.55,-42.18 -29.65,-3.13 -60.53,5.53 -92.89,25.89l-9.62 -11.11 104.68 -90.69 301.42 347.97zm-63.9 406.97l-121.81 78.09c-23.23,14.89 -37.1,25.78 -41.18,32.53 -4.28,6.72 -5.79,14.88 -4.78,24.35 1.09,9.56 7.87,24.22 20.53,43.97l-11.06 7.1 -141.57 -220.82 11.08 -7.09c12.81,19.98 23.35,32.36 31.57,37.05 8.28,4.79 16.37,6.66 24.04,5.73 7.85,-0.91 23.42,-8.89 46.65,-23.78l282.04 -180.81c23.34,-14.96 37.09,-25.77 41.19,-32.53 4.26,-6.72 5.76,-14.89 4.76,-24.34 -1.09,-9.58 -7.87,-24.22 -20.54,-43.98l11.08 -7.1 128.62 200.62c33.48,52.23 54.33,92.63 62.57,121.5 8.35,28.8 7.66,57.12 -2.07,84.96 -9.62,27.77 -27.54,49.98 -53.71,66.75 -31.81,20.39 -65.57,25.79 -101.09,16.25 -22.65,-6.17 -45.67,-20.35 -69.1,-42.56l-79.91 197.21c-10.01,25.72 -15.48,43.01 -16.46,51.76 -0.94,12.85 2.02,25.36 8.74,37.28l-11.72 7.52 -87.14 -135.92 107.43 -265.41 -18.16 -28.33zm211.04 -135.29l-188.25 120.68 11.62 18.13c18.93,29.53 35.85,49.93 50.57,61.18 14.83,11.18 31.96,16.42 51.33,15.81 19.35,-0.63 40.42,-8.15 63.01,-22.63 32.77,-21.02 52.05,-44.25 57.81,-69.68 5.74,-25.43 -2.32,-55.2 -24.23,-89.4l-21.86 -34.09z"/>
    <path class="fil0" d="M9333.96 3066.85l-81.76 -159.65 -54.72 2.95c-18.14,1.32 -32.13,4.57 -41.89,9.57 -12.97,6.64 -19.84,16.68 -20.81,30.09 -0.45,7.89 4.44,24.22 14.78,48.93l-11.71 6 -77.66 -151.63 11.71 -5.99c10.87,15.01 24.7,25.02 41.18,29.76 16.66,4.8 46.55,6.01 89.54,3.4l447.21 -23.3 3.28 6.41 -289.58 355.94c-27.76,34.07 -43.78,58.52 -47.9,73.38 -3.18,11.33 -1.73,24.05 4.28,38.65l-11.7 6 -112.98 -220.61 11.7 -5.98 4.64 9.05c9.05,17.68 17.99,28.9 26.69,33.43 6.09,3.11 12.6,2.81 19.38,-0.66 4.12,-2.11 8.08,-4.86 11.73,-8.47 1.72,-1.46 8.62,-9.2 20.42,-23.21l44.17 -54.06zm19.28 -23.49l120.65 -147.72 -191.2 9.99 70.55 137.73zm567.64 481.17l-160.74 58.47 -4.96 -14.66c38.2,-20.68 65.08,-48.7 80.57,-84.17 15.45,-35.58 17.88,-69.07 7.21,-100.59 -8.27,-24.43 -21.27,-41.54 -39.14,-51.29 -17.79,-9.9 -35.2,-11.91 -52.07,-6.2 -10.74,3.63 -19.4,9.42 -26.13,17.28 -8.81,10.61 -16.16,25.48 -21.95,44.59 -4.01,13.89 -9.29,44.54 -15.6,91.87 -8.59,66.35 -21.99,113.63 -40.09,141.8 -18.15,28.06 -43.18,47.43 -75.19,58.26 -40.55,13.72 -80.75,9.62 -120.64,-12.14 -39.89,-21.75 -68.16,-56.97 -84.66,-105.72 -5.16,-15.27 -8.49,-30.34 -10.03,-44.93 -1.57,-14.72 -1.49,-33.8 0.23,-57.25 0.89,-13.1 0.03,-23.29 -2.49,-30.75 -2.12,-6.23 -6.75,-11.87 -13.88,-17.22 -7.23,-5.3 -16.46,-8.45 -27.8,-9.37l-4.22 -12.46 183.23 -62.01 4.21 12.47c-47.87,27.89 -80.34,61.49 -97.2,100.54 -16.84,39.19 -19.48,76.03 -7.74,110.72 9.05,26.74 23.61,45.65 43.53,56.61 19.9,10.96 39.45,13.19 58.88,6.62 11.36,-3.85 21.44,-10.65 30.12,-20.4 8.68,-9.75 15.71,-22.34 21.27,-38.11 5.44,-15.72 10.58,-41.96 15.43,-78.72 6.66,-51.55 14.48,-89.59 23.21,-114.05 8.77,-24.35 20.88,-44.93 36.18,-61.67 15.42,-16.79 34.45,-28.94 57.04,-36.59 38.73,-13.11 76.51,-10.1 113.37,9.15 36.84,19.11 62.51,50.32 77.14,93.56 5.33,15.77 8.67,31.65 9.89,47.71 0.86,12.24 0.24,27.69 -2.01,46.42 -2.23,18.74 -2.22,31.25 -0.03,37.72 2.11,6.24 5.6,10.49 10.59,12.76 4.98,2.26 15.3,2.58 30.74,0.75l3.73 11zm-386.83 499.74l-12.66 3.59 -72.91 -256.79 12.65 -3.59 4.62 16.24c4.05,14.27 9.94,25.06 17.48,32.31 5.27,5.33 12.48,8.52 21.73,9.51 6.58,0.94 22.35,-2.06 47.28,-9.14l325.26 -92.36c25.44,-7.22 40.93,-13.1 46.51,-17.49 5.56,-4.53 9.63,-11.44 12.06,-20.85 2.54,-9.44 1.8,-21.02 -2.16,-34.91l-4.6 -16.26 12.65 -3.59 72.91 256.79 -12.65 3.59 -4.61 -16.24c-4.03,-14.15 -9.87,-24.82 -17.42,-32.06 -5.23,-5.22 -12.47,-8.53 -21.81,-9.76 -6.57,-0.95 -22.33,2.05 -47.27,9.13l-325.27 92.36c-25.42,7.21 -40.92,13.08 -46.47,17.61 -5.51,4.65 -9.58,11.57 -12,20.98 -2.55,9.44 -1.81,21.03 2.06,34.67l4.62 16.26zm292.67 388.68l-141.25 17.95c-27.74,3.52 -44.95,7.4 -51.66,11.76 -6.74,4.24 -11.74,10.98 -14.99,20.24 -3.13,9.1 -3.29,25.25 -0.36,48.27l-13.05 1.66 -32.87 -258.66 13.05 -1.66c2.99,23.53 7.19,39.24 12.74,46.99 5.42,7.89 11.93,13.04 19.37,15.47 7.48,2.56 25.1,2.01 52.85,-1.51l330.83 -42.04c27.75,-3.52 44.94,-7.41 51.66,-11.76 6.74,-4.24 11.76,-10.86 15.01,-19.97 3.13,-9.12 3.29,-25.26 0.34,-48.54l13.06 -1.66 28.18 221.82c9.28,73.05 2.89,127.16 -19.05,162.18 -22.05,35.18 -52.52,55.17 -91.54,60.13 -33.13,4.2 -62.7,-2.44 -88.87,-20.04 -26.13,-17.47 -45.72,-43.72 -58.87,-78.7 -9.08,-23.41 -17.24,-64.11 -24.58,-121.93zm249.44 -31.7l-220.29 28c0.56,8.37 1.09,14.68 1.62,18.9 3.89,30.57 15.98,53.09 36.24,67.28 20.27,14.19 49.47,18.94 87.59,14.09 37.87,-4.81 64.45,-16.64 79.87,-35.37 15.44,-18.73 21.1,-44.67 16.95,-77.41l-1.98 -15.49zm70.51 327.42l6.69 264.54 -13.16 0.33 -0.33 -13.29c-0.5,-19.97 -2.91,-33.58 -7.36,-40.96 -4.31,-7.37 -10.25,-12.5 -17.66,-15.42 -7.44,-3.03 -25.92,-4.11 -55.44,-3.37l-250.86 6.35c-45.89,1.16 -76.11,5.4 -90.76,12.6 -14.77,7.34 -26.73,19 -36.26,35.11 -9.4,16.09 -13.78,36.34 -13.18,60.44 0.7,27.72 7.48,51.15 20.48,70.31 13,19.14 30.51,33.28 52.67,42.39 22.16,9.12 60.44,13.05 114.85,11.67l208.97 -5.28c23.07,-0.58 39.65,-3.45 49.32,-8.46 9.8,-5.03 16.49,-11.26 20.17,-18.7 5.5,-11.5 8.07,-27.55 7.54,-48.31l13.16 -0.34 4.48 177.14 -13.16 0.34 -0.27 -10.58c-0.36,-14.32 -3.62,-26.1 -9.66,-35.49 -6.05,-9.39 -14.99,-16.13 -26.82,-20.08 -8.21,-3.03 -22.82,-4.33 -43.96,-3.8l-194.66 4.92c-60.21,1.52 -103.75,-1.39 -130.63,-8.57 -27.03,-7.31 -52,-25.9 -75.21,-56.02 -23.2,-30.24 -35.48,-71.72 -36.82,-124.84 -1.13,-44.34 3.94,-78.66 15.19,-103.06 15.28,-33.42 35.33,-57.27 60.26,-71.45 24.79,-14.16 58.52,-21.85 101.06,-22.92l250.99 -6.35c29.78,-0.75 48.18,-2.9 55.31,-6.3 7.14,-3.54 12.8,-9.23 16.98,-17.46 4.05,-8.23 5.73,-23.11 4.93,-44.76l13.15 -0.33zm-259.15 916.98c-15.02,47.88 -31.39,81.17 -48.96,99.62 -25.03,26.55 -55.82,38.43 -92.33,35.66 -38.45,-2.92 -69.16,-20.79 -92.02,-53.7 -27.58,-40.24 -38.56,-96.56 -33.07,-168.82l19.76 -259.75 13.11 1c-1.8,23.67 -0.83,39.91 3.03,48.6 3.73,8.83 9.08,15.19 15.88,19.06 6.81,4.01 24.17,7.02 52.07,9.13l332.53 25.3c27.9,2.12 45.52,1.77 52.98,-1.15 7.46,-2.8 13.7,-8.4 18.71,-16.56 4.9,-8.29 8.3,-24.07 10.07,-47.47l13.13 1 -18.64 245.08c-4.46,58.64 -12.88,99.64 -25.15,123.27 -12.27,23.65 -29.29,41.62 -51.07,54.19 -21.77,12.44 -44.42,17.83 -67.69,16.06 -24.69,-1.88 -45.87,-12.54 -63.79,-32 -17.79,-19.47 -30.68,-52.26 -38.55,-98.52zm20.61 -136.54c-2.74,35.99 -0.78,62.92 6.02,80.63 6.66,17.71 16.99,31.68 30.95,41.93 13.85,10.24 32.13,16.28 54.76,18 22.63,1.73 41.49,-1.36 56.58,-9.27 15.22,-7.9 27.12,-19.92 35.99,-36.19 8.86,-16.14 14.5,-42.74 17.05,-79.79l-201.35 -15.31zm-29.33 -2.24l-163.81 -12.45 -18.9 -1.44c-13.49,-1.03 -24.05,1.53 -31.37,7.84 -7.47,6.27 -11.7,16.04 -12.72,29.41 -1.5,19.81 1.61,38.27 9.23,55.67 7.59,17.39 19.48,31.11 35.78,41.26 16.17,10.16 34.72,16.1 55.44,17.67 23.78,1.81 45.5,-1.58 65.16,-10.06 19.66,-8.58 34.15,-22.23 43.35,-41.18 9.2,-18.96 15.15,-47.86 17.84,-86.72zm-209.67 808.52l-170.56 -59.22 102.15 -442.54 12.82 2.95 -3.8 16.46c-3.33,14.45 -3.38,26.74 -0.28,36.73 2.05,7.22 6.81,13.49 14.45,18.82 5.3,4 20.57,8.97 45.82,14.81l329.46 76.04c25.76,5.94 42.16,8.28 49.18,7.11 7.05,-1.28 13.95,-5.37 20.61,-12.45 6.78,-7.03 11.72,-17.53 14.97,-31.61l3.79 -16.46 12.83 2.96 -61.43 266.13 -12.82 -2.96 5.04 -21.86c3.34,-14.45 3.4,-26.74 0.31,-36.85 -2.04,-7.23 -6.79,-13.61 -14.33,-19.32 -5.29,-4.01 -20.56,-8.99 -45.82,-14.82l-318.91 -73.6c-25.5,-5.89 -42.18,-8.15 -49.89,-6.89 -7.7,1.27 -14.18,5.86 -19.68,13.6 -3.55,5.65 -8.1,20.23 -13.5,43.6l-9.57 41.46c-6.08,26.38 -6.51,49.45 -1.28,69.19 5.24,19.73 16.4,38.45 33.55,55.91 17.14,17.46 43.99,36.49 80.55,56.98l-3.66 15.83zm-247.92 260.65l-12.65 -3.59 72.91 -256.79 12.65 3.59 -4.61 16.25c-4.06,14.26 -4.72,26.54 -2.1,36.67 1.68,7.31 6.12,13.8 13.49,19.51 5.1,4.26 20.09,10 45.02,17.07l325.26 92.36c25.44,7.22 41.71,10.36 48.77,9.56 7.1,-0.94 14.2,-4.68 21.2,-11.4 7.13,-6.69 12.58,-16.95 16.53,-30.84l4.62 -16.25 12.65 3.59 -72.91 256.8 -12.67 -3.6 4.62 -16.24c4.02,-14.16 4.66,-26.31 2.05,-36.43 -1.73,-7.2 -6.15,-13.82 -13.45,-19.76 -5.08,-4.27 -20.07,-10 -45.01,-17.09l-325.26 -92.35c-25.43,-7.22 -41.69,-10.37 -48.8,-9.43 -7.13,1.05 -14.23,4.81 -21.24,11.54 -7.13,6.69 -12.58,16.93 -16.47,30.57l-4.6 16.26zm156.7 429.96l-276.07 84.24c-38.95,11.95 -67.14,24.39 -84.59,37.34 -12.42,9.39 -21.35,21.11 -26.79,34.91l-12.23 -4.83 97.67 -247.73 12.23 4.83c-4.75,16.28 -6.2,27.35 -4.52,33.28 1.81,5.97 5.22,9.96 10.5,12.04 9.96,3.93 32.88,0.62 68.87,-10.13l180.28 -55.06 -7.34 -23.56 -130.53 -51.46c-25.07,-9.89 -41.24,-14.58 -48.44,-14.25 -7.26,0.47 -14.66,3.79 -22.16,10.13 -7.59,6.28 -14.83,18.27 -21.78,35.9l-12.23 -4.82 94.79 -240.43 12.24 4.83 -6.2 15.72c-5.44,13.8 -7.32,25.96 -5.71,36.29 0.95,7.44 4.74,14.33 11.5,20.74 4.65,4.75 19.01,11.94 43.11,21.44l314.56 124.03c24.59,9.7 40.48,14.43 47.58,14.32 7.16,-0.23 14.6,-3.26 22.24,-9.26 7.74,-5.94 14.18,-15.61 19.48,-29.05l6.2 -15.72 12.23 4.83 -93.36 236.82 -12.24 -4.83c6.34,-16.06 8.81,-29.36 7.44,-39.62 -0.95,-7.43 -4.57,-14.41 -11,-20.97 -4.79,-5.06 -19.34,-12.47 -43.7,-22.08l-148.87 -58.69 72.8 233.72c10.58,32.59 22.08,51.25 34.19,56.03 9.11,3.59 18.18,1.35 27.43,-6.65 4.67,-4.12 11.36,-16.18 20.13,-36.28l12.24 4.82 -73.17 185.59 -12.25 -4.83c5.38,-17.14 7.54,-31.4 6.35,-42.82 -1.06,-11.37 -9,-39.73 -23.6,-84.99l-57.28 -183.79z"/>
   </g>
   <g>
    <polygon class="fil1" points="5078.92,1328.41 5863.1,2673.84 6647.27,4019.29 5078.92,4019.29 3510.58,4019.29 4294.75,2673.84 "/>
    <polygon class="fil1" points="6646.34,4017.84 7430.52,5363.27 8214.69,6708.71 6646.34,6708.71 5078,6708.71 5862.17,5363.27 "/>
    <polygon class="fil1" points="3511.93,4017.84 4296.1,5363.27 5080.27,6708.71 3511.93,6708.71 1943.58,6708.71 2727.75,5363.27 "/>
    <path class="fil2" d="M5078.92 4279.49c354.34,0 641.6,287.25 641.6,641.59 0,354.34 -287.26,641.6 -641.6,641.6 -354.34,0 -641.59,-287.26 -641.59,-641.6 0,-354.34 287.25,-641.59 641.59,-641.59z"/>
   </g>
   <g>
    <path class="fil0" d="M2769.92 10027.76l0 77.59 -224.37 38.06 -662.75 647.42 829.3 1063.57 210.04 39.04 0 76.61 -474.94 0 -760.11 -982.02 -261.94 210.04 0 656.33 278.25 39.04 0 76.61 -806.57 0 0 -76.61 249.09 -39.04 0 -1710.99 -249.09 -38.06 0 -77.59 777.41 0 0 77.59 -249.09 38.06 0 914.31 929.14 -914.31 -192.25 -38.06 0 -77.59 607.88 0zm1430.78 1942.29l-50.91 0 -710.68 -1669.97 0 1554.32 260.94 39.04 0 76.61 -661.76 0 0 -76.61 249.09 -39.04 0 -1710.99 -249.09 -38.06 0 -77.59 587.63 0 631.12 1477.23 688.94 -1477.23 556 0 0 77.59 -249.09 38.06 0 1710.99 249.09 39.04 0 76.61 -787.3 0 0 -76.61 260.46 -39.04 0 -1553.34 -774.44 1668.99zm2055.96 -76.61l0 76.61 -638.05 0 0 -76.61 219.93 -39.04 661.27 -1841.47 275.28 0 687.46 1841.47 246.13 39.04 0 76.61 -820.91 0 0 -76.61 260.46 -39.04 -192.26 -560.45 -764.56 0 -195.2 560.45 260.45 39.04zm311.36 -1671.95l-333.11 941.98 676.09 0 -342.98 -941.98zm2404.87 381.05c0,-159.14 -37.07,-272.81 -111.7,-341.51 -74.12,-68.69 -199.16,-102.8 -374.61,-102.8l-141.85 0 0 919.25 150.74 0c162.61,0 283.19,-37.06 360.78,-111.69 77.6,-74.13 116.64,-195.22 116.64,-363.25zm-628.16 605.42l0 646.44 308.4 39.04 0 76.61 -817.94 0 0 -76.61 230.32 -39.04 0 -1710.99 -249.1 -38.06 0 -77.59 732.44 0c474.45,0 712.17,190.77 712.17,571.82 0,199.16 -60.3,349.9 -180.39,453.2 -120.1,103.29 -292.58,155.18 -517.45,155.18l-218.45 0z"/>
    <polygon class="fil1" points="2499.14,11970.05 2400.42,11870.89 2237.39,11908.6 2237.39,11970.05 "/>
   </g>
   <path class="fil1" d="M5078.92 9258.91c-2301.61,0 -4167.45,-1865.84 -4167.45,-4167.46 0,-2301.61 1865.84,-4167.45 4167.45,-4167.45 2301.62,0 4167.46,1865.84 4167.46,4167.45 0,2301.62 -1865.84,4167.46 -4167.46,4167.46zm-4344.97 -4167.46c0,2399.65 1945.33,4344.97 4344.97,4344.97 2399.65,0 4344.97,-1945.32 4344.97,-4344.97 0,-2399.64 -1945.32,-4344.96 -4344.97,-4344.96 -2399.64,0 -4344.97,1945.32 -4344.97,4344.96z"/>
   <path class="fil3" d="M9843.25 12338.47l-9528.65 0 0 -2693.97 9528.65 0 0 2693.97zm56.55 -2741.84l-9641.75 0 0 2789.5 9641.75 0 0 -2789.5z"/>
  </g>
 </g>
</svg>
